<svg id="Layer_1" data-name="Layer 1" xmlns="http://www.w3.org/2000/svg" viewBox="0 0 320.51 312.5"><defs><style>.cls-1{fill:#00005b;}.cls-2{fill:#99f;}</style></defs><title>ae</title><g id="Layer_2_1_-8" data-name="Layer 2 1 -8"><g id="Surfaces"><g id="Video_Audio_Surface" data-name="Video Audio Surface"><g id="Outline_no_shadow-3" data-name="Outline no shadow-3"><path id="path2194" class="cls-1" d="M56.5,0h207a56.71,56.71,0,0,1,56.76,56.76v199A56.71,56.71,0,0,1,263.5,312.5H56.5A56.71,56.71,0,0,1-.26,255.74v-199A56.71,56.71,0,0,1,56.5,0Z" transform="translate(0.26)"/></g></g></g><g id="Outlined_Mnemonics_Logos" data-name="Outlined Mnemonics Logos"><g id="Ae"><path id="path2199" class="cls-2" d="M128.48,187H78.8L68.65,218.48a2.34,2.34,0,0,1-2.54,1.87H41c-1.47,0-1.87-.8-1.47-2.4l43-123.26c.4-1.34.8-2.54,1.34-4.14a46.74,46.74,0,0,0,.8-8.68,1.32,1.32,0,0,1,1.07-1.47h34.59c.93,0,1.6.4,1.73,1.07l48.75,136.89c.4,1.47,0,2.14-1.34,2.14H141.57a2,2,0,0,1-2.14-1.47ZM86.55,160.39h33.92c-.8-2.8-1.87-6.14-3.07-9.61s-2.4-7.48-3.61-11.48-2.54-8.15-3.87-12.29-2.54-8-3.61-11.89-2-7.21-2.94-10.42h-.27a164.26,164.26,0,0,1-4.54,17.23c-2,6.41-4,13.09-6.14,19.77-1.74,6.81-3.87,13.09-5.88,18.69Z" transform="translate(0.26)"/><path id="path2201" class="cls-2" d="M250,174.68H207.68a29.46,29.46,0,0,0,4.14,11.89,21.17,21.17,0,0,0,9.75,8,41.56,41.56,0,0,0,17.09,3.34,80.31,80.31,0,0,0,13.89-1.47,50.11,50.11,0,0,0,11.89-3.07c.67-.53,1.07-.27,1.07,1.07v20.43a6.65,6.65,0,0,1-.27,1.6,3.11,3.11,0,0,1-.94.94,57.15,57.15,0,0,1-13.35,4,90.17,90.17,0,0,1-19,1.6c-10.15,0-18.7-1.6-25.64-4.67a44.94,44.94,0,0,1-16.83-12.69,49,49,0,0,1-9.21-17.49,69.21,69.21,0,0,1,.53-40.73,54.53,54.53,0,0,1,10-18.3A48.38,48.38,0,0,1,207,116.45c6.28-3.07,13.76-4.14,22.3-4.14a48.23,48.23,0,0,1,20.7,4.14,36.8,36.8,0,0,1,14,10.68,48.92,48.92,0,0,1,8,15.23,52.57,52.57,0,0,1,2.54,16.29c0,3.2-.13,6-.27,8.55s-.4,4.41-.53,5.61a2,2,0,0,1-1.87,1.74c-.8,0-2.27.13-4.41.27a62.87,62.87,0,0,1-7.74.4c-3.07,0-6.28-.53-9.75-.53Zm-42.34-19.5h28.18c3.47,0,6,0,7.61-.13a6.52,6.52,0,0,0,3.07-1.07v-1.33a15.37,15.37,0,0,0-.8-4.94,17.67,17.67,0,0,0-17.36-12.29,18.81,18.81,0,0,0-17.76,10.15A27.7,27.7,0,0,0,207.68,155.18Z" transform="translate(0.26)"/></g></g></g></svg>